# xmcd
#
# Track frame offsets: 
#        150
#        14100
#        36300
#        55500
#        67650
#        80135
#        94910
#        105035
#        118385
#        142385
#
# Disc length: 2038 seconds
#
# Revision: 0
# Processed by: cddbd v1.5.2PL0 Copyright (c) Steve Scherf et al.
# Submitted via: ExactAudioCopy v1.0b4
#
DISCID=8a07f40a
DTITLE=Leslie West - The Great Fatsby
DYEAR=1975
DGENRE=Rock, Hard Rock, Blues Rock
TTITLE0=Don't Burn Me
TTITLE1=House Of The Rising Sun
TTITLE2=High Roller
TTITLE3=I'm Gonna Love You Thru The Night
TTITLE4=E.S.P.
TTITLE5=Honky Tonk Woman
TTITLE6=If I Still Had You
TTITLE7=Doctor Love
TTITLE8=If I Were A Carpenter
TTITLE9=Little Bit Of Love
EXTD=
EXTT0=
EXTT1=
EXTT2=
EXTT3=
EXTT4=
EXTT5=
EXTT6=
EXTT7=
EXTT8=
EXTT9=
PLAYORDER=
